<svg width="21" height="27" viewBox="0 0 21 27" fill="none" xmlns="http://www.w3.org/2000/svg">
<path d="M12.5164 6.2982C13.0053 5.7358 13.3061 4.96953 13.3061 4.125C13.3061 2.39911 12.0497 1 10.5 1C8.95018 1 7.69384 2.39911 7.69384 4.125C7.69384 4.96953 7.99466 5.7358 8.48347 6.2982C9.13019 6.1023 9.80961 6 10.5 6C11.1903 6 11.8697 6.1023 12.5164 6.2982Z" fill="white"/>
<path d="M13.8673 22.25C13.8673 24.3211 12.3597 26 10.5 26C8.64027 26 7.13262 24.3211 7.13262 22.25M10.5 6C12.2861 6 13.9991 6.68483 15.2622 7.9038C16.5252 9.12279 17.2347 10.7761 17.2347 12.5C17.2347 15.3523 17.8699 17.4382 18.6624 18.9309C19.5657 20.632 20.0172 21.4826 19.9995 21.6857C19.9791 21.9182 19.9415 21.9916 19.7722 22.1295C19.6243 22.25 18.8807 22.25 17.3938 22.25H3.60608C2.11919 22.25 1.37574 22.25 1.22777 22.1295C1.05848 21.9916 1.0209 21.9182 1.00051 21.6857C0.982673 21.4826 1.4343 20.632 2.33756 18.9309C3.13009 17.4382 3.76526 15.3523 3.76526 12.5C3.76526 10.7761 4.4748 9.12279 5.73781 7.9038C7.00082 6.68483 8.71379 6 10.5 6ZM10.5 6C9.80961 6 9.13019 6.1023 8.48347 6.2982C7.99466 5.7358 7.69384 4.96953 7.69384 4.125C7.69384 2.39911 8.95018 1 10.5 1C12.0497 1 13.3061 2.39911 13.3061 4.125C13.3061 4.96953 13.0053 5.7358 12.5164 6.2982C11.8697 6.1023 11.1903 6 10.5 6Z" stroke="white" stroke-width="2" stroke-linecap="round" stroke-linejoin="round"/>
</svg>
