<svg overflow="visible" viewBox="0 0 20.9999 27" fill="none" xmlns="http://www.w3.org/2000/svg">
<path id="bell_icon" d="M13.8672 22.25C13.8672 24.3211 12.3597 26 10.4999 26C8.6402 26 7.13255 24.3211 7.13255 22.25M12.5164 6.2982C13.0052 5.7358 13.306 4.96953 13.306 4.125C13.306 2.39911 12.0497 1 10.4999 1C8.95011 1 7.69377 2.39911 7.69377 4.125C7.69377 4.96953 7.99459 5.7358 8.4834 6.2982M17.2346 12.5C17.2346 10.7761 16.5251 9.12279 15.2621 7.9038C13.999 6.68482 12.286 6 10.4999 6C8.71372 6 7.00075 6.68482 5.73774 7.9038C4.47474 9.12279 3.76519 10.7761 3.76519 12.5C3.76519 15.3522 3.13003 17.4382 2.3375 18.9309C1.43424 20.632 0.982605 21.4826 1.00044 21.6857C1.02084 21.9182 1.05842 21.9916 1.2277 22.1295C1.37568 22.25 2.11912 22.25 3.60601 22.25H17.3938C18.8807 22.25 19.6242 22.25 19.7721 22.1295C19.9414 21.9916 19.979 21.9182 19.9994 21.6857C20.0172 21.4826 19.5656 20.632 18.6624 18.9309C17.8698 17.4382 17.2346 15.3522 17.2346 12.5Z" stroke="white" stroke-width="2" stroke-linecap="round" stroke-linejoin="round"/>
</svg>
