<svg width="16" height="16" viewBox="0 0 16 16" fill="none" xmlns="http://www.w3.org/2000/svg">
  <path d="M10.667 1.333H5.333C4.96533 1.333 4.667 1.632 4.667 2V3.333C4.667 3.701 4.96533 4 5.333 4H10.667C11.0347 4 11.333 3.701 11.333 3.333V2C11.333 1.632 11.0347 1.333 10.667 1.333Z" stroke="#6b7280" stroke-linecap="round" stroke-linejoin="round"/>
  <path d="M11.333 2.667H12.667C13.0203 2.667 13.3594 2.807 13.6095 3.057C13.8595 3.307 14 3.646 14 4V13.333C14 13.687 13.8595 14.026 13.6095 14.276C13.3594 14.526 13.0203 14.667 12.667 14.667H3.333C2.97971 14.667 2.64057 14.526 2.39052 14.276C2.14048 14.026 2 13.687 2 13.333V4C2 3.646 2.14048 3.307 2.39052 3.057C2.64057 2.807 2.97971 2.667 3.333 2.667H4.667" stroke="#6b7280" stroke-linecap="round" stroke-linejoin="round"/>
</svg>
