<svg overflow="visible" viewBox="0 0 21 19.0476" fill="none" xmlns="http://www.w3.org/2000/svg">
<g id="icons">
<path id="grid-[#1526]" fill-rule="evenodd" clip-rule="evenodd" d="M18.9 13.3333H16.8C15.6398 13.3333 14.7 14.1857 14.7 15.2381V17.1429C14.7 18.1952 15.6398 19.0476 16.8 19.0476H18.9C20.0602 19.0476 21 18.1952 21 17.1429V15.2381C21 14.1857 20.0602 13.3333 18.9 13.3333ZM11.55 13.3333H9.45C8.28975 13.3333 7.35001 14.1857 7.35001 15.2381V17.1429C7.35001 18.1952 8.28975 19.0476 9.45 19.0476H11.55C12.7103 19.0476 13.65 18.1952 13.65 17.1429V15.2381C13.65 14.1857 12.7103 13.3333 11.55 13.3333ZM4.2 13.3333H2.10001C0.939756 13.3333 0 14.1857 0 15.2381V17.1429C0 18.1952 0.939756 19.0476 2.10001 19.0476H4.2C5.36025 19.0476 6.3 18.1952 6.3 17.1429V15.2381C6.3 14.1857 5.36025 13.3333 4.2 13.3333ZM18.9 6.66667H16.8C15.6398 6.66667 14.7 7.51905 14.7 8.57143V10.4762C14.7 11.5286 15.6398 12.381 16.8 12.381H18.9C20.0602 12.381 21 11.5286 21 10.4762V8.57143C21 7.51905 20.0602 6.66667 18.9 6.66667ZM11.55 6.66667H9.45C8.28975 6.66667 7.35001 7.51905 7.35001 8.57143V10.4762C7.35001 11.5286 8.28975 12.381 9.45 12.381H11.55C12.7103 12.381 13.65 11.5286 13.65 10.4762V8.57143C13.65 7.51905 12.7103 6.66667 11.55 6.66667ZM4.2 6.66667H2.10001C0.939756 6.66667 0 7.51905 0 8.57143V10.4762C0 11.5286 0.939756 12.381 2.10001 12.381H4.2C5.36025 12.381 6.3 11.5286 6.3 10.4762V8.57143C6.3 7.51905 5.36025 6.66667 4.2 6.66667ZM18.9 0H16.8C15.6398 0 14.7 0.852381 14.7 1.90476V3.80952C14.7 4.86191 15.6398 5.71429 16.8 5.71429H18.9C20.0602 5.71429 21 4.86191 21 3.80952V1.90476C21 0.852381 20.0602 0 18.9 0ZM11.55 0H9.45C8.28975 0 7.35001 0.852381 7.35001 1.90476V3.80952C7.35001 4.86191 8.28975 5.71429 9.45 5.71429H11.55C12.7103 5.71429 13.65 4.86191 13.65 3.80952V1.90476C13.65 0.852381 12.7103 0 11.55 0ZM6.3 1.90476V3.80952C6.3 4.86191 5.36025 5.71429 4.2 5.71429H2.10001C0.939756 5.71429 0 4.86191 0 3.80952V1.90476C0 0.852381 0.939756 0 2.10001 0H4.2C5.36025 0 6.3 0.852381 6.3 1.90476Z" fill="white"/>
</g>
</svg>
