<svg overflow="visible" viewBox="0 0 13 14" fill="none" xmlns="http://www.w3.org/2000/svg">
<path id="Vector" d="M3.0625 5.68587C3.3866 5.66667 3.78616 5.66667 4.3 5.66667H8.7C9.21384 5.66667 9.61341 5.66667 9.9375 5.68587M3.0625 5.68587C2.65803 5.7098 2.37108 5.76367 2.12615 5.88467C1.73806 6.0764 1.42254 6.38233 1.2248 6.75867C1 7.18653 1 7.74653 1 8.86667V9.8C1 10.9201 1 11.4801 1.2248 11.908C1.42254 12.2843 1.73806 12.5903 2.12615 12.782C2.56734 13 3.14489 13 4.3 13H8.7C9.85514 13 10.4326 13 10.8739 12.782C11.262 12.5903 11.5775 12.2843 11.7752 11.908C12 11.4801 12 10.9201 12 9.8V8.86667C12 7.74653 12 7.18653 11.7752 6.75867C11.5775 6.38233 11.262 6.0764 10.8739 5.88467C10.6289 5.76367 10.342 5.7098 9.9375 5.68587M3.0625 5.68587V4.33333C3.0625 2.49239 4.60153 1 6.5 1C8.39846 1 9.9375 2.49239 9.9375 4.33333V5.68587" stroke="#2C2C2C" stroke-width="2" stroke-linecap="round" stroke-linejoin="round"/>
</svg>
