<svg overflow="visible" viewBox="0 0 3.16667 10.6667" fill="none" xmlns="http://www.w3.org/2000/svg">
<path id="icon" d="M1.58333 10.6667C1.14792 10.6667 0.775174 10.5361 0.465104 10.275C0.155035 10.0139 0 9.7 0 9.33333C0 8.96667 0.155035 8.65278 0.465104 8.39167C0.775174 8.13056 1.14792 8 1.58333 8C2.01875 8 2.39149 8.13056 2.70156 8.39167C3.01163 8.65278 3.16667 8.96667 3.16667 9.33333C3.16667 9.7 3.01163 10.0139 2.70156 10.275C2.39149 10.5361 2.01875 10.6667 1.58333 10.6667ZM1.58333 6.66667C1.14792 6.66667 0.775174 6.53611 0.465104 6.275C0.155035 6.01389 0 5.7 0 5.33333C0 4.96667 0.155035 4.65278 0.465104 4.39167C0.775174 4.13056 1.14792 4 1.58333 4C2.01875 4 2.39149 4.13056 2.70156 4.39167C3.01163 4.65278 3.16667 4.96667 3.16667 5.33333C3.16667 5.7 3.01163 6.01389 2.70156 6.275C2.39149 6.53611 2.01875 6.66667 1.58333 6.66667ZM1.58333 2.66667C1.14792 2.66667 0.775174 2.53611 0.465104 2.275C0.155035 2.01389 0 1.7 0 1.33333C0 0.966667 0.155035 0.652778 0.465104 0.391667C0.775174 0.130556 1.14792 0 1.58333 0C2.01875 0 2.39149 0.130556 2.70156 0.391667C3.01163 0.652778 3.16667 0.966667 3.16667 1.33333C3.16667 1.7 3.01163 2.01389 2.70156 2.275C2.39149 2.53611 2.01875 2.66667 1.58333 2.66667Z" fill="#5A5A5A"/>
</svg>
