<svg overflow="visible" viewBox="0 0 16 15" fill="none" xmlns="http://www.w3.org/2000/svg">
<path id="Vector" fill-rule="evenodd" clip-rule="evenodd" d="M0.0047129 6.66953C0.437301 2.93223 3.7606 0 7.82909 0C10.1293 0 12.1943 0.939758 13.6301 2.42998V1.5C13.6301 1.08579 13.9902 0.75 14.4344 0.75C14.8787 0.75 15.2388 1.08579 15.2388 1.5V4.5C15.2388 4.69891 15.154 4.88968 15.0032 5.03033C14.8523 5.17098 14.6477 5.25 14.4344 5.25H11.2172C10.773 5.25 10.4129 4.91421 10.4129 4.5C10.4129 4.08578 10.773 3.75 11.2172 3.75H12.7189C11.5672 2.37378 9.80189 1.5 7.82909 1.5C4.62155 1.5 1.95275 3.81784 1.60403 6.83047C1.55636 7.2423 1.1597 7.54012 0.71806 7.49565C0.276415 7.45125 -0.0429583 7.08135 0.0047129 6.66953ZM15.2819 7.50435C15.7236 7.54875 16.043 7.91865 15.9953 8.33047C15.5627 12.0678 12.2394 15 8.17092 15C5.8707 15 3.80568 14.0603 2.36985 12.57V13.5C2.36985 13.9142 2.00975 14.25 1.56554 14.25C1.12134 14.25 0.761235 13.9142 0.761235 13.5V10.5C0.761235 10.3011 0.845976 10.1103 0.996808 9.96968C1.14765 9.82905 1.35222 9.75 1.56554 9.75H4.78276C5.22697 9.75 5.58707 10.0858 5.58707 10.5C5.58707 10.9142 5.22697 11.25 4.78276 11.25H3.28112C4.43279 12.6263 6.19816 13.5 8.17092 13.5C11.3785 13.5 14.0473 11.1821 14.396 8.16953C14.4436 7.7577 14.8403 7.45988 15.2819 7.50435Z" fill="#0F1729"/>
</svg>
