<svg overflow="visible" viewBox="0 0 14.1517 13.2073" fill="none" xmlns="http://www.w3.org/2000/svg">
<path id="icon" d="M13.051 13.2073L8.09793 8.58476C7.70483 8.87825 7.25276 9.1106 6.74172 9.28181C6.23069 9.45302 5.6869 9.53862 5.11034 9.53862C3.68207 9.53862 2.47328 9.07697 1.48397 8.15368C0.494655 7.23039 0 6.10227 0 4.76931C0 3.43635 0.494655 2.30822 1.48397 1.38493C2.47328 0.461645 3.68207 0 5.11034 0C6.53862 0 7.74741 0.461645 8.73672 1.38493C9.72603 2.30822 10.2207 3.43635 10.2207 4.76931C10.2207 5.30738 10.129 5.81489 9.94552 6.29182C9.76207 6.76875 9.5131 7.19065 9.19862 7.55752L14.1517 12.1801L13.051 13.2073ZM5.11034 8.07114C6.0931 8.07114 6.92845 7.75013 7.61638 7.1081C8.30431 6.46608 8.64828 5.68648 8.64828 4.76931C8.64828 3.85213 8.30431 3.07254 7.61638 2.43051C6.92845 1.78849 6.0931 1.46748 5.11034 1.46748C4.12759 1.46748 3.29224 1.78849 2.60431 2.43051C1.91638 3.07254 1.57241 3.85213 1.57241 4.76931C1.57241 5.68648 1.91638 6.46608 2.60431 7.1081C3.29224 7.75013 4.12759 8.07114 5.11034 8.07114Z" fill="#297CC1"/>
</svg>
